<svg width="48" height="35" viewBox="0 0 48 35" fill="none" xmlns="http://www.w3.org/2000/svg">
<path d="M3.46887 29.04C2.93553 29.04 2.45887 28.9233 2.03887 28.69C1.62553 28.45 1.29887 28.1233 1.05887 27.71C0.825534 27.29 0.708867 26.81 0.708867 26.27C0.708867 25.7233 0.825534 25.2433 1.05887 24.83C1.29887 24.41 1.62553 24.0833 2.03887 23.85C2.45887 23.61 2.93553 23.49 3.46887 23.49C4.0022 23.49 4.47553 23.61 4.88887 23.85C5.30887 24.0833 5.63553 24.41 5.86887 24.83C6.10887 25.2433 6.2322 25.7233 6.23887 26.27C6.23887 26.81 6.11887 27.29 5.87887 27.71C5.63887 28.1233 5.3122 28.45 4.89887 28.69C4.48553 28.9233 4.00887 29.04 3.46887 29.04ZM3.46887 28.22C3.83553 28.22 4.15887 28.1367 4.43887 27.97C4.71887 27.8033 4.93887 27.5733 5.09887 27.28C5.25887 26.9867 5.33887 26.65 5.33887 26.27C5.33887 25.89 5.25887 25.5533 5.09887 25.26C4.93887 24.96 4.71887 24.7267 4.43887 24.56C4.15887 24.3933 3.83553 24.31 3.46887 24.31C3.10887 24.31 2.78553 24.3933 2.49887 24.56C2.21887 24.7267 1.99887 24.96 1.83887 25.26C1.67887 25.5533 1.59887 25.89 1.59887 26.27C1.59887 26.65 1.67887 26.9867 1.83887 27.28C1.99887 27.5733 2.21887 27.8033 2.49887 27.97C2.78553 28.1367 3.10887 28.22 3.46887 28.22ZM8.20668 31.34C8.07335 31.34 7.96335 31.2967 7.87668 31.21C7.79001 31.1233 7.74668 31.0133 7.74668 30.88V26.25C7.75335 25.73 7.87668 25.26 8.11668 24.84C8.36335 24.42 8.69335 24.09 9.10668 23.85C9.52001 23.61 9.98668 23.49 10.5067 23.49C11.0333 23.49 11.5033 23.6133 11.9167 23.86C12.3367 24.1 12.6667 24.43 12.9067 24.85C13.1533 25.2633 13.2767 25.7367 13.2767 26.27C13.2767 26.7967 13.16 27.27 12.9267 27.69C12.7 28.11 12.39 28.44 11.9967 28.68C11.6033 28.92 11.16 29.04 10.6667 29.04C10.2467 29.04 9.86668 28.9533 9.52668 28.78C9.18668 28.6067 8.90001 28.3733 8.66668 28.08V30.88C8.66668 31.0133 8.62335 31.1233 8.53668 31.21C8.45668 31.2967 8.34668 31.34 8.20668 31.34ZM10.5067 28.22C10.86 28.22 11.1767 28.1367 11.4567 27.97C11.7433 27.7967 11.9667 27.5633 12.1267 27.27C12.2933 26.97 12.3767 26.6367 12.3767 26.27C12.3767 25.8967 12.2933 25.5633 12.1267 25.27C11.9667 24.97 11.7433 24.7367 11.4567 24.57C11.1767 24.3967 10.86 24.31 10.5067 24.31C10.1533 24.31 9.83335 24.3967 9.54668 24.57C9.26668 24.7433 9.04668 24.9767 8.88668 25.27C8.72668 25.5633 8.64668 25.8967 8.64668 26.27C8.64668 26.6367 8.72668 26.97 8.88668 27.27C9.04668 27.5633 9.26668 27.7967 9.54668 27.97C9.83335 28.1367 10.1533 28.22 10.5067 28.22ZM16.8475 29C16.5075 29 16.2008 28.9167 15.9275 28.75C15.6541 28.5767 15.4408 28.3467 15.2875 28.06C15.1341 27.7667 15.0575 27.4333 15.0575 27.06V22.25C15.0575 22.1167 15.0975 22.0067 15.1775 21.92C15.2641 21.8333 15.3741 21.79 15.5075 21.79C15.6408 21.79 15.7508 21.8333 15.8375 21.92C15.9241 22.0067 15.9675 22.1167 15.9675 22.25V27.06C15.9675 27.36 16.0508 27.6067 16.2175 27.8C16.3841 27.9933 16.5941 28.09 16.8475 28.09H17.1575C17.2708 28.09 17.3641 28.1333 17.4375 28.22C17.5175 28.3067 17.5575 28.4167 17.5575 28.55C17.5575 28.6833 17.5075 28.7933 17.4075 28.88C17.3141 28.96 17.1908 29 17.0375 29H16.8475ZM14.5175 24.52C14.3975 24.52 14.2975 24.4833 14.2175 24.41C14.1375 24.3367 14.0975 24.2433 14.0975 24.13C14.0975 24.01 14.1375 23.9133 14.2175 23.84C14.2975 23.7667 14.3975 23.73 14.5175 23.73H16.9275C17.0475 23.73 17.1475 23.7667 17.2275 23.84C17.3075 23.9133 17.3475 24.01 17.3475 24.13C17.3475 24.2433 17.3075 24.3367 17.2275 24.41C17.1475 24.4833 17.0475 24.52 16.9275 24.52H14.5175Z" fill="#FACC00"/>
<path d="M30.3114 22.032C29.9594 22.032 29.6261 21.9787 29.3114 21.872C28.9968 21.76 28.7488 21.608 28.5674 21.416C28.4981 21.336 28.4688 21.248 28.4794 21.152C28.4901 21.056 28.5381 20.9733 28.6234 20.904C28.7141 20.8347 28.8074 20.8053 28.9034 20.816C28.9994 20.8267 29.0794 20.8693 29.1434 20.944C29.2501 21.0613 29.4048 21.1627 29.6074 21.248C29.8154 21.3333 30.0421 21.376 30.2874 21.376C30.6341 21.376 30.8901 21.32 31.0554 21.208C31.2261 21.0907 31.3141 20.9467 31.3194 20.776C31.3194 20.6 31.2368 20.4533 31.0714 20.336C30.9061 20.2133 30.6154 20.1173 30.1994 20.048C29.6608 19.9467 29.2688 19.7893 29.0234 19.576C28.7781 19.3627 28.6554 19.104 28.6554 18.8C28.6554 18.528 28.7301 18.304 28.8794 18.128C29.0341 17.9467 29.2341 17.8133 29.4794 17.728C29.7301 17.6373 29.9941 17.592 30.2714 17.592C30.6234 17.592 30.9328 17.6507 31.1994 17.768C31.4661 17.88 31.6794 18.0373 31.8394 18.24C31.9088 18.32 31.9381 18.4027 31.9274 18.488C31.9221 18.5733 31.8794 18.6453 31.7994 18.704C31.7194 18.752 31.6261 18.768 31.5194 18.752C31.4181 18.736 31.3328 18.6907 31.2634 18.616C31.1301 18.4773 30.9808 18.3813 30.8154 18.328C30.6554 18.2693 30.4688 18.24 30.2554 18.24C29.9994 18.24 29.7861 18.288 29.6154 18.384C29.4501 18.48 29.3674 18.6107 29.3674 18.776C29.3674 18.8827 29.3941 18.976 29.4474 19.056C29.5061 19.136 29.6128 19.2107 29.7674 19.28C29.9221 19.344 30.1434 19.4027 30.4314 19.456C30.8314 19.5307 31.1461 19.6293 31.3754 19.752C31.6101 19.8747 31.7781 20.0187 31.8794 20.184C31.9808 20.3493 32.0314 20.536 32.0314 20.744C32.0314 20.9893 31.9621 21.2107 31.8234 21.408C31.6901 21.6 31.4954 21.752 31.2394 21.864C30.9834 21.976 30.6741 22.032 30.3114 22.032ZM34.7116 22C34.4396 22 34.1942 21.9333 33.9756 21.8C33.7569 21.6613 33.5862 21.4773 33.4636 21.248C33.3409 21.0133 33.2796 20.7467 33.2796 20.448V16.6C33.2796 16.4933 33.3116 16.4053 33.3756 16.336C33.4449 16.2667 33.5329 16.232 33.6396 16.232C33.7462 16.232 33.8342 16.2667 33.9036 16.336C33.9729 16.4053 34.0076 16.4933 34.0076 16.6V20.448C34.0076 20.688 34.0742 20.8853 34.2076 21.04C34.3409 21.1947 34.5089 21.272 34.7116 21.272H34.9596C35.0502 21.272 35.1249 21.3067 35.1836 21.376C35.2476 21.4453 35.2796 21.5333 35.2796 21.64C35.2796 21.7467 35.2396 21.8347 35.1596 21.904C35.0849 21.968 34.9862 22 34.8636 22H34.7116ZM32.8476 18.416C32.7516 18.416 32.6716 18.3867 32.6076 18.328C32.5436 18.2693 32.5116 18.1947 32.5116 18.104C32.5116 18.008 32.5436 17.9307 32.6076 17.872C32.6716 17.8133 32.7516 17.784 32.8476 17.784H34.7756C34.8716 17.784 34.9516 17.8133 35.0156 17.872C35.0796 17.9307 35.1116 18.008 35.1116 18.104C35.1116 18.1947 35.0796 18.2693 35.0156 18.328C34.9516 18.3867 34.8716 18.416 34.7756 18.416H32.8476ZM38.1465 22.032C37.7465 22.032 37.3892 21.936 37.0745 21.744C36.7598 21.552 36.5118 21.288 36.3305 20.952C36.1492 20.616 36.0585 20.2373 36.0585 19.816C36.0585 19.3893 36.1545 19.0107 36.3465 18.68C36.5438 18.344 36.8078 18.08 37.1385 17.888C37.4745 17.6907 37.8505 17.592 38.2665 17.592C38.6878 17.592 39.0638 17.6907 39.3945 17.888C39.7252 18.08 39.9865 18.344 40.1785 18.68C40.3758 19.016 40.4772 19.3947 40.4825 19.816L40.1945 19.888C40.1945 20.2933 40.1038 20.6587 39.9225 20.984C39.7412 21.3093 39.4958 21.5653 39.1865 21.752C38.8825 21.9387 38.5358 22.032 38.1465 22.032ZM38.2665 21.376C38.5545 21.376 38.8105 21.3093 39.0345 21.176C39.2585 21.0373 39.4345 20.8507 39.5625 20.616C39.6958 20.376 39.7625 20.1093 39.7625 19.816C39.7625 19.5173 39.6958 19.2507 39.5625 19.016C39.4345 18.776 39.2585 18.5893 39.0345 18.456C38.8105 18.3173 38.5545 18.248 38.2665 18.248C37.9892 18.248 37.7358 18.3173 37.5065 18.456C37.2772 18.5893 37.0958 18.776 36.9625 19.016C36.8345 19.2507 36.7705 19.5173 36.7705 19.816C36.7705 20.1093 36.8345 20.376 36.9625 20.616C37.0958 20.8507 37.2772 21.0373 37.5065 21.176C37.7358 21.3093 37.9892 21.376 38.2665 21.376ZM40.1065 22.008C39.9998 22.008 39.9118 21.9733 39.8425 21.904C39.7732 21.8347 39.7385 21.7467 39.7385 21.64V20.36L39.8905 19.592L40.4825 19.816V21.64C40.4825 21.7467 40.4452 21.8347 40.3705 21.904C40.3012 21.9733 40.2132 22.008 40.1065 22.008ZM42.0247 19.28C42.0354 18.9547 42.1181 18.664 42.2728 18.408C42.4328 18.152 42.6434 17.9493 42.9048 17.8C43.1661 17.6507 43.4541 17.576 43.7688 17.576C44.0621 17.576 44.2808 17.6213 44.4248 17.712C44.5741 17.8027 44.6301 17.9173 44.5928 18.056C44.5768 18.136 44.5448 18.1947 44.4968 18.232C44.4488 18.264 44.3928 18.2827 44.3288 18.288C44.2648 18.288 44.1954 18.2827 44.1208 18.272C43.7954 18.2187 43.5048 18.2267 43.2488 18.296C42.9928 18.3653 42.7901 18.4853 42.6408 18.656C42.4914 18.8267 42.4168 19.0347 42.4168 19.28H42.0247ZM42.0488 22C41.9368 22 41.8488 21.9707 41.7848 21.912C41.7208 21.848 41.6888 21.7573 41.6888 21.64V17.984C41.6888 17.872 41.7208 17.784 41.7848 17.72C41.8488 17.656 41.9368 17.624 42.0488 17.624C42.1714 17.624 42.2621 17.656 42.3208 17.72C42.3848 17.7787 42.4168 17.8667 42.4168 17.984V21.64C42.4168 21.752 42.3848 21.84 42.3208 21.904C42.2621 21.968 42.1714 22 42.0488 22ZM47.1256 22C46.8536 22 46.6083 21.9333 46.3896 21.8C46.171 21.6613 46.0003 21.4773 45.8776 21.248C45.755 21.0133 45.6936 20.7467 45.6936 20.448V16.6C45.6936 16.4933 45.7256 16.4053 45.7896 16.336C45.859 16.2667 45.947 16.232 46.0536 16.232C46.1603 16.232 46.2483 16.2667 46.3176 16.336C46.387 16.4053 46.4216 16.4933 46.4216 16.6V20.448C46.4216 20.688 46.4883 20.8853 46.6216 21.04C46.755 21.1947 46.923 21.272 47.1256 21.272H47.3736C47.4643 21.272 47.539 21.3067 47.5976 21.376C47.6616 21.4453 47.6936 21.5333 47.6936 21.64C47.6936 21.7467 47.6536 21.8347 47.5736 21.904C47.499 21.968 47.4003 22 47.2776 22H47.1256ZM45.2616 18.416C45.1656 18.416 45.0856 18.3867 45.0216 18.328C44.9576 18.2693 44.9256 18.1947 44.9256 18.104C44.9256 18.008 44.9576 17.9307 45.0216 17.872C45.0856 17.8133 45.1656 17.784 45.2616 17.784H47.1896C47.2856 17.784 47.3656 17.8133 47.4296 17.872C47.4936 17.9307 47.5256 18.008 47.5256 18.104C47.5256 18.1947 47.4936 18.2693 47.4296 18.328C47.3656 18.3867 47.2856 18.416 47.1896 18.416H45.2616Z" fill="#FACC00"/>
<line x1="23.5" y1="2.18557e-08" x2="23.5" y2="35" stroke="#FACC00"/>
<path d="M12 9.62506C12 9.27977 12.3357 9.00005 12.75 9.00005H17.25C17.6643 9.00005 18 9.27977 18 9.62506C18 9.97035 17.6643 10.2501 17.25 10.2501H12.75C12.3357 10.2501 12 9.97035 12 9.62506ZM17.25 12.7501H12.375C12.3589 12.706 10.065 9.38434 10.065 9.38434C9.91543 9.17563 9.69304 9 9.31199 9H6.75C6.33566 9 6 9.27972 6 9.625C6 9.97029 6.33566 10.25 6.75 10.25H8.9385L11.3526 13.6938C11.3995 13.7622 11.5622 14 11.9372 14H17.25C17.6643 14 18 13.7203 18 13.375C18 13.0297 17.6643 12.75 17.25 12.75V12.7501Z" fill="#FACC00"/>
</svg>
